<svg width="20" height="20" viewBox="0 0 20 20" fill="none" xmlns="http://www.w3.org/2000/svg">
<path id="Vector" d="M19 1H15.5518L14.3518 12.9308C14.302 13.2597 14.1349 13.5594 13.8814 13.7749C13.628 13.9903 13.3052 14.1069 12.9726 14.1031H4.2831C3.98232 14.1188 3.68468 14.0357 3.43562 13.8663C3.18656 13.6969 2.99979 13.4507 2.90382 13.1652L1.06938 7.64812C1.00098 7.4407 0.98282 7.22 1.01639 7.00419C1.04996 6.78837 1.1343 6.58362 1.26248 6.40677C1.396 6.21875 1.57454 6.0672 1.78176 5.966C1.98898 5.8648 2.21827 5.81717 2.44866 5.82748H15.0691M5.20721 18.241C5.20721 18.6219 4.89845 18.9306 4.51757 18.9306C4.1367 18.9306 3.82793 18.6219 3.82793 18.241C3.82793 17.8601 4.1367 17.5513 4.51757 17.5513C4.89845 17.5513 5.20721 17.8601 5.20721 18.241ZM14.1725 18.241C14.1725 18.6219 13.8638 18.9306 13.4829 18.9306C13.102 18.9306 12.7932 18.6219 12.7932 18.241C12.7932 17.8601 13.102 17.5513 13.4829 17.5513C13.8638 17.5513 14.1725 17.8601 14.1725 18.241Z" stroke="white" stroke-width="1.5" stroke-linecap="round" stroke-linejoin="round"/>
</svg>
