<svg width="16" height="16" viewBox="0 0 17 17" fill="none" xmlns="http://www.w3.org/2000/svg">
<g id="Frame">
<path id="Vector" d="M4.51501 10.74L3.85501 14.57C3.82578 14.7362 3.84385 14.9072 3.90715 15.0636C3.97046 15.22 4.07645 15.3555 4.21304 15.4545C4.34963 15.5536 4.51131 15.6122 4.67963 15.6238C4.84795 15.6354 5.01615 15.5994 5.16501 15.52L8.59501 13.71L12.025 15.52C12.1739 15.5994 12.3421 15.6354 12.5104 15.6238C12.6787 15.6122 12.8404 15.5536 12.977 15.4545C13.1136 15.3555 13.2196 15.22 13.2829 15.0636C13.3462 14.9072 13.3642 14.7362 13.335 14.57L12.675 10.74L15.455 8.03001C15.5767 7.91291 15.663 7.76392 15.7041 7.60008C15.7451 7.43624 15.7392 7.26415 15.687 7.10351C15.6349 6.94286 15.5386 6.80013 15.4091 6.69164C15.2797 6.58315 15.1223 6.51328 14.955 6.49001L11.115 5.93001L9.40501 2.46001C9.32137 2.32129 9.20331 2.20654 9.06227 2.12688C8.92122 2.04723 8.76199 2.00537 8.60001 2.00537C8.43803 2.00537 8.2788 2.04723 8.13775 2.12688C7.99671 2.20654 7.87865 2.32129 7.79501 2.46001L6.07501 5.94001L2.23501 6.50001C2.06772 6.52328 1.91035 6.59315 1.78089 6.70164C1.65144 6.81013 1.55513 6.95286 1.50297 7.1135C1.45081 7.27415 1.44491 7.44624 1.48595 7.61008C1.52698 7.77392 1.61329 7.92291 1.73501 8.04001L4.51501 10.74ZM6.79501 7.65001C6.9396 7.62963 7.07706 7.57437 7.19553 7.489C7.314 7.40363 7.40992 7.29072 7.47501 7.16001L8.59501 4.86001L9.71501 7.16001C9.7801 7.29072 9.87602 7.40363 9.99449 7.489C10.113 7.57437 10.2504 7.62963 10.395 7.65001L12.895 8.01001L11.085 9.78001C10.9798 9.8821 10.9011 10.0083 10.8558 10.1478C10.8105 10.2872 10.7999 10.4356 10.825 10.58L11.255 13.07L9.01501 11.86C8.88555 11.7917 8.74138 11.756 8.59501 11.756C8.44863 11.756 8.30447 11.7917 8.17501 11.86L5.93501 13.08L6.36501 10.58C6.39011 10.4356 6.37954 10.2872 6.33423 10.1478C6.28891 10.0083 6.21023 9.8821 6.10501 9.78001L4.29501 8.02001L6.79501 7.65001Z" fill="#FFC041"/>
</g>
</svg>
