<svg width="25" height="25" viewBox="0 0 25 25" fill="none" xmlns="http://www.w3.org/2000/svg">
<g id="Frame">
<path id="Vector" d="M18.19 8.81999C19.2509 8.81999 20.2683 9.24141 21.0184 9.99156C21.7686 10.7417 22.19 11.7591 22.19 12.82V19.82H20.19C20.19 20.6156 19.874 21.3787 19.3113 21.9413C18.7487 22.5039 17.9857 22.82 17.19 22.82C16.3944 22.82 15.6313 22.5039 15.0687 21.9413C14.5061 21.3787 14.19 20.6156 14.19 19.82H10.19C10.19 20.6156 9.87395 21.3787 9.31134 21.9413C8.74873 22.5039 7.98567 22.82 7.19002 22.82C6.39437 22.82 5.63131 22.5039 5.0687 21.9413C4.50609 21.3787 4.19002 20.6156 4.19002 19.82H2.19002V11.82C2.19002 11.5548 2.29538 11.3004 2.48292 11.1129C2.67045 10.9253 2.92481 10.82 3.19002 10.82C3.45524 10.82 3.70959 10.9253 3.89713 11.1129C4.08467 11.3004 4.19002 11.5548 4.19002 11.82V17.82H20.19V14.82H18.19V10.82H16.19V14.82C16.19 15.0852 16.0847 15.3396 15.8971 15.5271C15.7096 15.7146 15.4552 15.82 15.19 15.82C14.9248 15.82 14.6705 15.7146 14.4829 15.5271C14.2954 15.3396 14.19 15.0852 14.19 14.82V7.81999C14.19 7.55477 14.0847 7.30042 13.8971 7.11288C13.7096 6.92534 13.4552 6.81999 13.19 6.81999H11.09C10.8248 6.81999 10.5705 6.71463 10.3829 6.52709C10.1954 6.33956 10.09 6.0852 10.09 5.81999C10.09 5.55477 10.1954 5.30042 10.3829 5.11288C10.5705 4.92534 10.8248 4.81999 11.09 4.81999H13.19C13.9857 4.81999 14.7487 5.13606 15.3113 5.69867C15.874 6.26128 16.19 7.02434 16.19 7.81999V8.81999H18.19ZM6.48302 8.52699L4.19002 6.23399L1.89702 8.52699C1.80478 8.6225 1.69443 8.69868 1.57243 8.75109C1.45042 8.8035 1.3192 8.83108 1.18642 8.83224C1.05364 8.83339 0.921965 8.80809 0.799069 8.75781C0.676172 8.70753 0.56452 8.63328 0.470628 8.53938C0.376735 8.44549 0.302482 8.33384 0.252201 8.21094C0.20192 8.08804 0.176618 7.95637 0.177772 7.82359C0.178926 7.69081 0.206512 7.55959 0.258921 7.43758C0.31133 7.31558 0.387512 7.20523 0.483023 7.11299L2.77602 4.81999L0.483023 2.52699C0.300865 2.33839 0.20007 2.08578 0.202349 1.82359C0.204627 1.56139 0.309796 1.31058 0.495204 1.12517C0.680612 0.939761 0.931425 0.834592 1.19362 0.832313C1.45582 0.830035 1.70842 0.930829 1.89702 1.11299L4.19002 3.40599L6.48302 1.11299C6.67162 0.930829 6.92423 0.830035 7.18642 0.832313C7.44862 0.834592 7.69943 0.939761 7.88484 1.12517C8.07025 1.31058 8.17542 1.56139 8.1777 1.82359C8.17998 2.08578 8.07918 2.33839 7.89702 2.52699L5.60402 4.81999L7.89702 7.11299C8.07918 7.30159 8.17998 7.55419 8.1777 7.81639C8.17542 8.07859 8.07025 8.3294 7.88484 8.51481C7.69943 8.70021 7.44862 8.80538 7.18642 8.80766C6.92423 8.80994 6.67162 8.70915 6.48302 8.52699Z" fill="#65605D"/>
</g>
</svg>
