<svg width="17" height="16" viewBox="0 0 17 16" fill="none" xmlns="http://www.w3.org/2000/svg">
<g id="Frame">
<path id="Vector" d="M11.5674 5.27204C11.981 5.68343 12.5255 5.93722 13.1065 5.98947C13.6875 6.04172 14.2685 5.88914 14.7489 5.55815C15.2292 5.22715 15.5787 4.7386 15.7368 4.17707C15.8949 3.61554 15.8517 3.0164 15.6146 2.4834C15.3775 1.9504 14.9614 1.51709 14.4385 1.25852C13.9156 0.999944 13.3187 0.932381 12.7512 1.06753C12.1837 1.20268 11.6814 1.53203 11.3311 1.99855C10.9809 2.46507 10.8048 3.03938 10.8334 3.62204L5.73041 6.42704C5.34928 6.16968 4.90455 6.02244 4.44515 6.00151C3.98575 5.98058 3.52947 6.08677 3.12653 6.3084C2.72358 6.53004 2.38957 6.85852 2.16125 7.25772C1.93293 7.65691 1.81914 8.11135 1.83241 8.57104L1.81641 8.58004L1.83241 8.58704C1.84882 9.05346 1.99547 9.50597 2.25576 9.89335C2.51604 10.2807 2.87956 10.5875 3.30518 10.779C3.7308 10.9705 4.20152 11.039 4.66406 10.9768C5.1266 10.9146 5.56249 10.7242 5.92241 10.427L10.8344 12.637C10.8667 13.2194 11.1016 13.7721 11.4984 14.1995C11.8952 14.6269 12.429 14.9022 13.0073 14.9776C13.5856 15.053 14.1721 14.9239 14.6653 14.6125C15.1584 14.3011 15.5272 13.8271 15.7077 13.2725C15.8883 12.718 15.8693 12.1177 15.654 11.5757C15.4387 11.0337 15.0407 10.584 14.5288 10.3044C14.0169 10.0249 13.4234 9.93313 12.851 10.045C12.2786 10.1569 11.7634 10.4654 11.3944 10.917L6.80641 8.85104C6.85046 8.5387 6.83554 8.22087 6.76241 7.91404L11.5684 5.27104L11.5674 5.27204Z" fill="#006064"/>
</g>
</svg>
