<svg width="16" height="16" viewBox="0 0 16 16" fill="none" xmlns="http://www.w3.org/2000/svg">
<g id="Group">
<path id="Vector" d="M1 13.25C1 12.3217 1.36875 11.4315 2.02513 10.7751C2.6815 10.1187 3.57174 9.75 4.5 9.75H11.5C12.4283 9.75 13.3185 10.1187 13.9749 10.7751C14.6313 11.4315 15 12.3217 15 13.25C15 13.7141 14.8156 14.1592 14.4874 14.4874C14.1592 14.8156 13.7141 15 13.25 15H2.75C2.28587 15 1.84075 14.8156 1.51256 14.4874C1.18437 14.1592 1 13.7141 1 13.25Z" stroke="white" stroke-width="1.5" stroke-linejoin="round"/>
<path id="Vector_2" d="M8 6.25C9.44975 6.25 10.625 5.07475 10.625 3.625C10.625 2.17525 9.44975 1 8 1C6.55025 1 5.375 2.17525 5.375 3.625C5.375 5.07475 6.55025 6.25 8 6.25Z" stroke="white" stroke-width="1.5"/>
</g>
</svg>
